<?xml version="1.0" ?>
<!-- Uploaded to: SVG Repo, www.svgrepo.com, Generator: SVG Repo Mixer Tools -->
<svg fill="#000000" width="800px" height="800px" viewBox="0 0 64 64" id="Layer_1_1_" version="1.1" xml:space="preserve" xmlns="http://www.w3.org/2000/svg" xmlns:xlink="http://www.w3.org/1999/xlink">
<g>
<path d="M32,28c-1.103,0-2-0.897-2-2h-2c0,2.206,1.794,4,4,4s4-1.794,4-4h-2C34,27.103,33.103,28,32,28z"/>
<path d="M48.214,38.684L47,38.279V16c0-8.271-6.729-15-15-15S17,7.729,17,16v22.279l-1.214,0.405   C12.923,39.638,11,42.307,11,45.325V54c0,2.757,2.243,5,5,5h1v4h36V45.325C53,42.307,51.077,39.638,48.214,38.684z M51,45.325V51   h-4v-6h-2v16h-9.556C35.788,60.409,36,59.732,36,59V49h2v-6h-1.586l0.636-0.636c1.242-1.242,1.93-2.889,1.947-4.644l8.584,2.861   C49.626,41.263,51,43.169,51,45.325z M30,59v-0.142c1.72-0.447,3-2,3-3.858s-1.28-3.411-3-3.858V49h4v10c0,1.103-0.897,2-2,2   S30,60.103,30,59z M28.364,40.95C27.484,40.07,27,38.901,27,37.657C27,35.089,29.089,33,31.657,33h0.687   C34.911,33,37,35.089,37,37.657c0,1.244-0.484,2.414-1.364,3.293L33.586,43h-3.172L28.364,40.95z M35.944,32.066   C34.905,31.395,33.67,31,32.343,31h-0.687c-1.327,0-2.562,0.395-3.601,1.067C24.977,30.56,23,27.458,23,24v-7h1   c3.028,0,5.937-1.272,8-3.452C34.063,15.728,36.972,17,40,17h1v7C41,27.461,39.024,30.56,35.944,32.066z M28,47v-2h8v2H28z    M38.63,35.489c-0.251-0.727-0.622-1.398-1.094-1.987c2.5-1.454,4.302-3.815,5.06-6.563c0.897-0.108,1.717-0.445,2.404-0.965   v11.638L38.63,35.489z M43,24v-4.816c1.161,0.414,2,1.514,2,2.816c0,1.313-0.853,2.42-2.031,2.825C42.99,24.552,43,24.277,43,24z    M32,3c7.168,0,13,5.832,13,13v2.026c-0.584-0.442-1.257-0.773-2-0.924V15h-3c-2.818,0-5.509-1.346-7.2-3.6L32,10.333L31.2,11.4   C29.509,13.654,26.818,15,24,15h-3v2.101c-0.743,0.152-1.416,0.482-2,0.924V16C19,8.832,24.832,3,32,3z M21.031,24.825   C19.853,24.42,19,23.313,19,22c0-1.302,0.839-2.402,2-2.816V24C21,24.277,21.01,24.552,21.031,24.825z M19,25.974   c0.687,0.52,1.507,0.857,2.404,0.965c0.759,2.746,2.561,5.108,5.06,6.562c-0.472,0.589-0.843,1.26-1.095,1.987L19,37.612V25.974z    M16.419,40.581l8.584-2.861c0.016,1.754,0.704,3.401,1.947,4.644L27.586,43H26v6h2v2h-9v-6h-2v4h-4v-3.675   C13,43.169,14.374,41.263,16.419,40.581z M13,54v-3h4v2h12c1.103,0,2,0.897,2,2s-0.897,2-2,2H16C14.346,57,13,55.654,13,54z M19,59   h9c0,0.732,0.212,1.409,0.556,2H19V59z M47,61v-8h4v8H47z"/>
<circle cx="27" cy="21" r="1"/>
<circle cx="37" cy="21" r="1"/>
</g>
</svg>